{
  "accessors": [
    {
      "bufferView": 2,
      "componentType": 5126,
      "count": 23377,
      "max": [
        1.2798600196838379,
        0.90795797109603882,
        1.8027900457382202
      ],
      "min": [
        -1.2798600196838379,
        -0.90795797109603882,
        -1.8027900457382202
      ],
      "type": "VEC3"
    },
    {
      "bufferView": 2,
      "byteOffset": 280524,
      "componentType": 5126,
      "count": 23377,
      "max": [
        0.99995934963226318,
        0.99999701976776123,
        0.9999004602432251
      ],
      "min": [
        -0.99995934963226318,
        -1,
        -0.99997925758361816
      ],
      "type": "VEC3"
    },
    {
      "bufferView": 3,
      "componentType": 5126,
      "count": 23377,
      "max": [
        0.99997055530548096,
        0.99991863965988159,
        0.99999767541885376,
        1
      ],
      "min": [
        -0.99999725818634033,
        -0.99999582767486572,
        -1,
        -1
      ],
      "type": "VEC4"
    },
    {
      "bufferView": 1,
      "componentType": 5126,
      "count": 23377,
      "max": [
        0.99864500761032104,
        0.99801599979400635
      ],
      "min": [
        0.0013144999975338578,
        0.0023647299967706203
      ],
      "type": "VEC2"
    },
    {
      "bufferView": 0,
      "componentType": 5125,
      "count": 56205,
      "max": [
        23376
      ],
      "min": [
        0
      ],
      "type": "SCALAR"
    },
    {
      "bufferView": 2,
      "byteOffset": 561048,
      "componentType": 5126,
      "count": 292,
      "max": [
        -0.082283399999141693,
        0.18412800133228302,
        1.5165599584579468
      ],
      "min": [
        -0.19735999405384064,
        0.12549899518489838,
        1.4814300537109375
      ],
      "type": "VEC3"
    },
    {
      "bufferView": 2,
      "byteOffset": 564552,
      "componentType": 5126,
      "count": 292,
      "max": [
        0.98507946729660034,
        0.99896210432052612,
        0.99253422021865845
      ],
      "min": [
        -0.99648422002792358,
        -0.99921435117721558,
        -0.99921190738677979
      ],
      "type": "VEC3"
    },
    {
      "bufferView": 3,
      "byteOffset": 374032,
      "componentType": 5126,
      "count": 292,
      "max": [
        0.99864232540130615,
        0.99567413330078125,
        0.61107712984085083,
        1
      ],
      "min": [
        -0.99984335899353027,
        -0.99576407670974731,
        -0.96139228343963623,
        -1
      ],
      "type": "VEC4"
    },
    {
      "bufferView": 1,
      "byteOffset": 187016,
      "componentType": 5126,
      "count": 292,
      "max": [
        0.80654299259185791,
        0.46764901280403137
      ],
      "min": [
        0.26570099592208862,
        0.13490000367164612
      ],
      "type": "VEC2"
    },
    {
      "bufferView": 0,
      "byteOffset": 224820,
      "componentType": 5125,
      "count": 1536,
      "max": [
        291
      ],
      "min": [
        0
      ],
      "type": "SCALAR"
    }
  ],
  "asset": {
    "extras": {
      "author": "romanyuk (https://sketchfab.com/romanyuk)",
      "license": "CC-BY-4.0 (http://creativecommons.org/licenses/by/4.0/)",
      "source": "https://sketchfab.com/models/90f05fa834804e62a0ea36a2ca338f3b",
      "title": "Low Poly Garen_"
    },
    "generator": "Sketchfab-3.29.3",
    "version": "2.0"
  },
  "bufferViews": [
    {
      "buffer": 0,
      "byteLength": 230964,
      "byteOffset": 0,
      "name": "floatBufferViews",
      "target": 34963
    },
    {
      "buffer": 0,
      "byteLength": 189352,
      "byteOffset": 230964,
      "byteStride": 8,
      "name": "floatBufferViews",
      "target": 34962
    },
    {
      "buffer": 0,
      "byteLength": 568056,
      "byteOffset": 420316,
      "byteStride": 12,
      "name": "floatBufferViews",
      "target": 34962
    },
    {
      "buffer": 0,
      "byteLength": 378704,
      "byteOffset": 988372,
      "byteStride": 16,
      "name": "floatBufferViews",
      "target": 34962
    }
  ],
  "buffers": [
    {
      "byteLength": 1367076,
      "uri": "scene.bin"
    }
  ],
  "extensionsUsed": [
    "KHR_materials_unlit"
  ],
  "images": [
    {
      "uri": "textures/Scene_-_Root_baseColor.jpg"
    }
  ],
  "materials": [
    {
      "doubleSided": true,
      "emissiveFactor": [
        0,
        0,
        0
      ],
      "extensions": {
        "KHR_materials_unlit": {}
      },
      "name": "Scene_-_Root",
      "pbrMetallicRoughness": {
        "baseColorFactor": [
          1,
          1,
          1,
          1
        ],
        "baseColorTexture": {
          "index": 0,
          "texCoord": 0
        },
        "metallicFactor": 0,
        "roughnessFactor": 1
      }
    }
  ],
  "meshes": [
    {
      "primitives": [
        {
          "attributes": {
            "NORMAL": 1,
            "POSITION": 0,
            "TANGENT": 2,
            "TEXCOORD_0": 3
          },
          "indices": 4,
          "material": 0,
          "mode": 4
        }
      ]
    },
    {
      "primitives": [
        {
          "attributes": {
            "NORMAL": 6,
            "POSITION": 5,
            "TANGENT": 7,
            "TEXCOORD_0": 8
          },
          "indices": 9,
          "material": 0,
          "mode": 4
        }
      ]
    }
  ],
  "nodes": [
    {
      "children": [
        1
      ],
      "name": "RootNode (gltf orientation matrix)",
      "rotation": [
        -0.70710678118654746,
        -0,
        -0,
        0.70710678118654757
      ]
    },
    {
      "children": [
        2
      ],
      "name": "RootNode (model correction matrix)"
    },
    {
      "children": [
        3,
        4
      ],
      "name": "b137609479e34bc3bf215142d91b745b.obj.cleaner"
    },
    {
      "mesh": 0,
      "name": ""
    },
    {
      "mesh": 1,
      "name": ""
    }
  ],
  "samplers": [
    {
      "magFilter": 9729,
      "minFilter": 9987,
      "wrapS": 10497,
      "wrapT": 10497
    }
  ],
  "scene": 0,
  "scenes": [
    {
      "name": "OSG_Scene",
      "nodes": [
        0
      ]
    }
  ],
  "textures": [
    {
      "sampler": 0,
      "source": 0
    }
  ]
}

