<svg xmlns="http://www.w3.org/2000/svg" viewBox="0 0 277 73"><defs><style>.cls-1{stroke:#fff;stroke-miterlimit:10;}.cls-2{fill:#fff;}</style></defs><title>nike-cta</title><g id="Layer_2" data-name="Layer 2"><g id="Layer_1-2" data-name="Layer 1"><rect class="cls-1" x="0.5" y="0.5" width="276" height="72"/><path class="cls-2" d="M23.25,40.44a3.61,3.61,0,0,0,2.61,2.88,8.53,8.53,0,0,0,2.78.44c3.72,0,4.46-1.94,4.46-2.95,0-2.11-1.74-2.65-2.75-2.91l-5-1.27a5.88,5.88,0,0,1-4.82-6c0-4.22,3.42-6.67,7.91-6.67a9.77,9.77,0,0,1,6.13,1.94,5.06,5.06,0,0,1,1.88,2.88l-3.82,1c-.27-.77-.94-2.55-4.12-2.55S24.65,28.88,24.65,30c0,1.74,2,2.38,3.12,2.68l3.78.94c1.91.5,5.8,1.57,5.8,6.37,0,4.42-3.79,7-8.88,7A10.69,10.69,0,0,1,21.6,44.9a6.7,6.7,0,0,1-2.24-3.62Z"/><path class="cls-2" d="M57.38,46.67h-4V37H44.82v9.68h-4V24.33h4v9.21h8.54V24.33h4Z"/><path class="cls-2" d="M70.51,47c-7,0-9.41-6.53-9.41-11.59,0-6,3.42-11.42,9.58-11.42s9.41,5.49,9.41,11.49C80.09,42.32,76.37,47,70.51,47Zm4.12-17.32a4.16,4.16,0,0,0-4-2.45c-4.22,0-5.16,4.32-5.16,8.31,0,2.65.44,8.21,5.09,8.21a4.7,4.7,0,0,0,4.19-2.58c.54-1.07,1-2.55,1-5.73A14.18,14.18,0,0,0,74.63,29.69Z"/><path class="cls-2" d="M83.8,46.67V24.33H93a8.08,8.08,0,0,1,4.69,1.11,6.32,6.32,0,0,1,3,5.53c0,4.39-3.42,6.87-7.24,6.87H87.82v8.84Zm4-12.29h4.79c2.91,0,3.82-1.78,3.82-3.32a3.66,3.66,0,0,0-.6-2c-.6-1-1.78-1.37-3.58-1.37H87.82Z"/><path class="cls-2" d="M130.47,46.67h-3.68L118,32.4c-.23-.37-1-2.08-1.24-2.48V46.67h-3.22V24.33H118l7.84,13.17c.07.17.6,1.14,1.37,2.61V24.33h3.22Z"/><path class="cls-2" d="M135.35,46.67V24.33h4V46.67Z"/><path class="cls-2" d="M157.36,46.67l-4.72-11.39L148.32,41v5.66h-4V24.33h4V36.09c.6-.94.84-1.31,1.11-1.68l7.44-10.08h4.05l-5.29,7.34,6.23,15Z"/><path class="cls-2" d="M164.86,46.67V24.33h14.37v3.32H168.88v6.06h8.31V37h-8.31v6.26h10.49v3.45Z"/><path class="cls-2" d="M188.25,46.67h-4.05V42.38h4.05Z"/><path class="cls-2" d="M209,39.33c-.87,5.9-4.92,7.67-8.47,7.67-7.5,0-8.94-7.67-8.94-11.52,0-5.8,2.68-11.49,9.08-11.49,4.76,0,7.54,3,8.34,7.91l-3.75.4c-.4-1.78-1.17-5.06-4.56-5.06-4.49,0-4.76,6.13-4.76,8.14,0,6.4,2.55,8.24,4.89,8.24,2.11,0,4.09-1.68,4.42-4.72Z"/><path class="cls-2" d="M220.44,47c-7,0-9.41-6.53-9.41-11.59,0-6,3.42-11.42,9.58-11.42S230,29.49,230,35.48C230,42.32,226.3,47,220.44,47Zm4.12-17.32a4.16,4.16,0,0,0-4-2.45c-4.22,0-5.16,4.32-5.16,8.31,0,2.65.44,8.21,5.09,8.21a4.7,4.7,0,0,0,4.19-2.58c.54-1.07,1-2.55,1-5.73A14.18,14.18,0,0,0,224.56,29.69Z"/><path class="cls-2" d="M251.52,46.67V27.11l-6.2,19.56h-2.11L237,27.11V46.67h-3.28V24.33H240l4.66,14.41,4.62-14.41h6.33V46.67Z"/></g></g></svg>