{
  "accessors": [
    {
      "bufferView": 2,
      "componentType": 5126,
      "count": 24,
      "max": [
        2.4500000476837158,
        2.4500000476837158,
        9.5
      ],
      "min": [
        -2.4500000476837158,
        -2.4500000476837158,
        9.5
      ],
      "type": "VEC3"
    },
    {
      "bufferView": 2,
      "byteOffset": 288,
      "componentType": 5126,
      "count": 24,
      "max": [
        -0,
        0,
        1
      ],
      "min": [
        -0,
        0,
        1
      ],
      "type": "VEC3"
    },
    {
      "bufferView": 3,
      "componentType": 5126,
      "count": 24,
      "max": [
        1,
        1.7854982559128985e-07,
        0,
        1
      ],
      "min": [
        1,
        -1.4299806707640528e-06,
        0,
        1
      ],
      "type": "VEC4"
    },
    {
      "bufferView": 3,
      "byteOffset": 384,
      "componentType": 5126,
      "count": 24,
      "max": [
        1,
        1,
        1,
        1
      ],
      "min": [
        1,
        1,
        1,
        1
      ],
      "type": "VEC4"
    },
    {
      "bufferView": 0,
      "componentType": 5125,
      "count": 66,
      "max": [
        23
      ],
      "min": [
        0
      ],
      "type": "SCALAR"
    },
    {
      "bufferView": 2,
      "byteOffset": 576,
      "componentType": 5126,
      "count": 3101,
      "max": [
        2.6500000953674316,
        2.6500000953674316,
        14.399999618530273
      ],
      "min": [
        -2.6501688957214355,
        -2.6501688957214355,
        8.5
      ],
      "type": "VEC3"
    },
    {
      "bufferView": 2,
      "byteOffset": 37788,
      "componentType": 5126,
      "count": 3101,
      "max": [
        1,
        1,
        1
      ],
      "min": [
        -0.99998694658279419,
        -1,
        -1
      ],
      "type": "VEC3"
    },
    {
      "bufferView": 3,
      "byteOffset": 768,
      "componentType": 5126,
      "count": 3101,
      "max": [
        1,
        1,
        0.090015113353729248,
        1
      ],
      "min": [
        -1,
        -0.99999982118606567,
        -0.10269491374492645,
        1
      ],
      "type": "VEC4"
    },
    {
      "bufferView": 3,
      "byteOffset": 50384,
      "componentType": 5126,
      "count": 3101,
      "max": [
        1,
        1,
        1,
        1
      ],
      "min": [
        1,
        1,
        1,
        1
      ],
      "type": "VEC4"
    },
    {
      "bufferView": 0,
      "byteOffset": 264,
      "componentType": 5125,
      "count": 4911,
      "max": [
        3100
      ],
      "min": [
        0
      ],
      "type": "SCALAR"
    },
    {
      "bufferView": 2,
      "byteOffset": 75000,
      "componentType": 5126,
      "count": 1774,
      "max": [
        2.6500000953674316,
        2.6500000953674316,
        14.399999618530273
      ],
      "min": [
        -2.6501688957214355,
        -2.6501688957214355,
        8.5
      ],
      "type": "VEC3"
    },
    {
      "bufferView": 2,
      "byteOffset": 96288,
      "componentType": 5126,
      "count": 1774,
      "max": [
        1,
        1,
        1
      ],
      "min": [
        -1,
        -1,
        -1
      ],
      "type": "VEC3"
    },
    {
      "bufferView": 3,
      "byteOffset": 100000,
      "componentType": 5126,
      "count": 1774,
      "max": [
        1,
        1,
        0.041075684130191803,
        1
      ],
      "min": [
        -1,
        -1,
        -0.045115821063518524,
        1
      ],
      "type": "VEC4"
    },
    {
      "bufferView": 3,
      "byteOffset": 128384,
      "componentType": 5126,
      "count": 1774,
      "max": [
        1,
        1,
        1,
        1
      ],
      "min": [
        1,
        1,
        1,
        1
      ],
      "type": "VEC4"
    },
    {
      "bufferView": 0,
      "byteOffset": 19908,
      "componentType": 5125,
      "count": 5421,
      "max": [
        1773
      ],
      "min": [
        0
      ],
      "type": "SCALAR"
    },
    {
      "bufferView": 2,
      "byteOffset": 117576,
      "componentType": 5126,
      "count": 989,
      "max": [
        2.6500000953674316,
        2.6500000953674316,
        9.5
      ],
      "min": [
        -2.6500000953674316,
        -2.6500000953674316,
        0.20000000298023224
      ],
      "type": "VEC3"
    },
    {
      "bufferView": 2,
      "byteOffset": 129444,
      "componentType": 5126,
      "count": 989,
      "max": [
        0.99144494533538818,
        1,
        0.44721415638923645
      ],
      "min": [
        -0.99144494533538818,
        -1,
        -5.5948122823252112e-15
      ],
      "type": "VEC3"
    },
    {
      "bufferView": 3,
      "byteOffset": 156768,
      "componentType": 5126,
      "count": 989,
      "max": [
        1,
        0.99144500494003296,
        0.048635154962539673,
        1
      ],
      "min": [
        -1,
        -0.99144500494003296,
        -0.036507207900285721,
        1
      ],
      "type": "VEC4"
    },
    {
      "bufferView": 3,
      "byteOffset": 172592,
      "componentType": 5126,
      "count": 989,
      "max": [
        1,
        1,
        1,
        1
      ],
      "min": [
        1,
        1,
        1,
        1
      ],
      "type": "VEC4"
    },
    {
      "bufferView": 1,
      "componentType": 5126,
      "count": 989,
      "max": [
        1,
        0.9955679178237915
      ],
      "min": [
        0.0093450779095292091,
        -7.3205330686221259e-16
      ],
      "type": "VEC2"
    },
    {
      "bufferView": 0,
      "byteOffset": 41592,
      "componentType": 5125,
      "count": 2928,
      "max": [
        988
      ],
      "min": [
        0
      ],
      "type": "SCALAR"
    },
    {
      "bufferView": 2,
      "byteOffset": 141312,
      "componentType": 5126,
      "count": 4675,
      "max": [
        2.6600019931793213,
        2.6600019931793213,
        11.5
      ],
      "min": [
        -2.6600019931793213,
        -2.6600019931793213,
        0
      ],
      "type": "VEC3"
    },
    {
      "bufferView": 2,
      "byteOffset": 197412,
      "componentType": 5126,
      "count": 4675,
      "max": [
        1,
        0.99998784065246582,
        1
      ],
      "min": [
        -0.99998784065246582,
        -0.99998784065246582,
        -1
      ],
      "type": "VEC3"
    },
    {
      "bufferView": 3,
      "byteOffset": 188416,
      "componentType": 5126,
      "count": 4675,
      "max": [
        1,
        1,
        6.4651587194930471e-08,
        1
      ],
      "min": [
        -1,
        -1,
        -3.9723133227198559e-08,
        1
      ],
      "type": "VEC4"
    },
    {
      "bufferView": 3,
      "byteOffset": 263216,
      "componentType": 5126,
      "count": 4675,
      "max": [
        1,
        1,
        1,
        1
      ],
      "min": [
        1,
        1,
        1,
        1
      ],
      "type": "VEC4"
    },
    {
      "bufferView": 0,
      "byteOffset": 53304,
      "componentType": 5125,
      "count": 8331,
      "max": [
        4674
      ],
      "min": [
        0
      ],
      "type": "SCALAR"
    }
  ],
  "asset": {
    "extras": {
      "author": "Pablopcb (https://sketchfab.com/pablo420662)",
      "license": "CC-BY-4.0 (http://creativecommons.org/licenses/by/4.0/)",
      "source": "https://sketchfab.com/models/93fea564b3734c92bcc0ca76ced497b8",
      "title": "Axe"
    },
    "generator": "Sketchfab-3.28.5",
    "version": "2.0"
  },
  "bufferViews": [
    {
      "buffer": 0,
      "byteLength": 86628,
      "byteOffset": 0,
      "name": "floatBufferViews",
      "target": 34963
    },
    {
      "buffer": 0,
      "byteLength": 7912,
      "byteOffset": 86628,
      "byteStride": 8,
      "name": "floatBufferViews",
      "target": 34962
    },
    {
      "buffer": 0,
      "byteLength": 253512,
      "byteOffset": 94540,
      "byteStride": 12,
      "name": "floatBufferViews",
      "target": 34962
    },
    {
      "buffer": 0,
      "byteLength": 338016,
      "byteOffset": 348052,
      "byteStride": 16,
      "name": "floatBufferViews",
      "target": 34962
    }
  ],
  "buffers": [
    {
      "byteLength": 686068,
      "uri": "scene.bin"
    }
  ],
  "images": [
    {
      "uri": "textures/AXE_dime_baseColor.jpeg"
    }
  ],
  "materials": [
    {
      "doubleSided": true,
      "emissiveFactor": [
        0,
        0,
        0
      ],
      "name": "material",
      "pbrMetallicRoughness": {
        "baseColorFactor": [
          0.011750637499999999,
          0.011750637499999999,
          0.011750637499999999,
          1
        ],
        "metallicFactor": 0,
        "roughnessFactor": 0.59999999999999998
      }
    },
    {
      "doubleSided": true,
      "emissiveFactor": [
        0,
        0,
        0
      ],
      "name": "AXE_dime",
      "pbrMetallicRoughness": {
        "baseColorFactor": [
          0.73999999999999999,
          0.73999999999999999,
          0.73999999999999999,
          1
        ],
        "baseColorTexture": {
          "index": 0,
          "texCoord": 0
        },
        "metallicFactor": 0,
        "roughnessFactor": 0.59999999999999998
      }
    },
    {
      "doubleSided": true,
      "emissiveFactor": [
        0,
        0,
        0
      ],
      "name": "FrontCol",
      "pbrMetallicRoughness": {
        "baseColorFactor": [
          1,
          1,
          1,
          1
        ],
        "metallicFactor": 0,
        "roughnessFactor": 0.59999999999999998
      }
    },
    {
      "doubleSided": true,
      "emissiveFactor": [
        0,
        0,
        0
      ],
      "name": "BASE",
      "pbrMetallicRoughness": {
        "baseColorFactor": [
          0.098039200000000007,
          0.098039200000000007,
          0.098039200000000007,
          1
        ],
        "metallicFactor": 0,
        "roughnessFactor": 0.59999999999999998
      }
    }
  ],
  "meshes": [
    {
      "primitives": [
        {
          "attributes": {
            "COLOR_0": 3,
            "NORMAL": 1,
            "POSITION": 0,
            "TANGENT": 2
          },
          "indices": 4,
          "material": 2,
          "mode": 4
        }
      ]
    },
    {
      "primitives": [
        {
          "attributes": {
            "COLOR_0": 8,
            "NORMAL": 6,
            "POSITION": 5,
            "TANGENT": 7
          },
          "indices": 9,
          "material": 0,
          "mode": 4
        }
      ]
    },
    {
      "primitives": [
        {
          "attributes": {
            "COLOR_0": 13,
            "NORMAL": 11,
            "POSITION": 10,
            "TANGENT": 12
          },
          "indices": 14,
          "material": 0,
          "mode": 4
        }
      ]
    },
    {
      "primitives": [
        {
          "attributes": {
            "COLOR_0": 18,
            "NORMAL": 16,
            "POSITION": 15,
            "TANGENT": 17,
            "TEXCOORD_0": 19
          },
          "indices": 20,
          "material": 1,
          "mode": 4
        }
      ]
    },
    {
      "primitives": [
        {
          "attributes": {
            "COLOR_0": 24,
            "NORMAL": 22,
            "POSITION": 21,
            "TANGENT": 23
          },
          "indices": 25,
          "material": 3,
          "mode": 4
        }
      ]
    }
  ],
  "nodes": [
    {
      "children": [
        1
      ],
      "name": "RootNode (gltf orientation matrix)",
      "rotation": [
        -0.70710678118654746,
        -0,
        -0,
        0.70710678118654757
      ]
    },
    {
      "children": [
        2
      ],
      "name": "RootNode (model correction matrix)"
    },
    {
      "children": [
        3
      ],
      "name": "AXE_PRODUCTO.3ds"
    },
    {
      "children": [
        4,
        5,
        6,
        7,
        8
      ],
      "name": "Model"
    },
    {
      "mesh": 0,
      "name": ""
    },
    {
      "mesh": 1,
      "name": ""
    },
    {
      "mesh": 2,
      "name": ""
    },
    {
      "mesh": 3,
      "name": ""
    },
    {
      "mesh": 4,
      "name": ""
    }
  ],
  "samplers": [
    {
      "magFilter": 9729,
      "minFilter": 9987,
      "wrapS": 10497,
      "wrapT": 10497
    }
  ],
  "scene": 0,
  "scenes": [
    {
      "name": "OSG_Scene",
      "nodes": [
        0
      ]
    }
  ],
  "textures": [
    {
      "sampler": 0,
      "source": 0
    }
  ]
}

